# xmcd CD database file
#
# Track frame offsets:
#	182
#	31470
#	60755
#	78605
#	111067
#	132822
#	151495
#	177810
#	199360
#
# Disc length: 2893 seconds
#
# Revision: 0
# Processed by: cddbd v1.5.1PL0 Copyright (c) Steve Scherf et al.
# Submitted via: CDex 1.51
#
DISCID=6f0b4b09
DTITLE=Uli Gutscher Quintett - Inspiration
DYEAR=1900
DGENRE=Jazz
TTITLE0=On The Way
TTITLE1=Autumn Waltz
TTITLE2=Shut Your Mouth
TTITLE3=Thinkin' Of You
TTITLE4=Inspiration
TTITLE5=God Bless The Child
TTITLE6=Broken Line
TTITLE7=Colours
TTITLE8=Carffity
EXTD=
EXTT0=
EXTT1=
EXTT2=
EXTT3=
EXTT4=
EXTT5=
EXTT6=
EXTT7=
EXTT8=
PLAYORDER=
